<svg xmlns="http://www.w3.org/2000/svg" width="57" height="47" viewBox="0 0 57 47" fill="none">
  <rect x="1.79688" y="2.58594" width="50.8294" height="42.0657" rx="3.50548" fill="#1A9FBD" fill-opacity="0.3"/>
  <path d="M32.4912 36.2843H3.78838C3.10061 36.2843 2.54027 35.7514 2.54027 35.0973V10.174H44.9715V23.2287C44.9715 23.884 45.5305 24.4157 46.2196 24.4157C46.9086 24.4157 47.4677 23.884 47.4677 23.2287L47.4673 4.24017C47.4673 2.27712 45.7875 0.679688 43.7234 0.679688H3.78882C1.72465 0.679688 0.0449219 2.27712 0.0449219 4.24017V35.0973C0.0449219 37.0604 1.72465 38.6578 3.78882 38.6578H32.4917C33.1807 38.6578 33.7398 38.1261 33.7398 37.4708C33.7398 36.8156 33.1807 36.2839 32.4917 36.2839L32.4912 36.2843ZM3.78838 3.0528H43.7229C44.4107 3.0528 44.971 3.58568 44.971 4.23976V7.80024H2.53985V4.23976C2.53985 3.58568 3.10018 3.0528 3.78795 3.0528H3.78838Z" fill="#1A9FBD"/>
  <path d="M6.28485 5.42484C6.28485 6.0805 5.72619 6.6118 5.03674 6.6118C4.34772 6.6118 3.78906 6.0805 3.78906 5.42484C3.78906 4.76957 4.34773 4.23828 5.03674 4.23828C5.72619 4.23828 6.28485 4.76958 6.28485 5.42484Z" fill="#1A9FBD"/>
  <path d="M10.027 5.42484C10.027 6.0805 9.46837 6.6118 8.77893 6.6118C8.0899 6.6118 7.53125 6.0805 7.53125 5.42484C7.53125 4.76957 8.08991 4.23828 8.77893 4.23828C9.46837 4.23828 10.027 4.76958 10.027 5.42484Z" fill="#1A9FBD"/>
  <path d="M13.7712 5.42484C13.7712 6.0805 13.2125 6.6118 12.5231 6.6118C11.834 6.6118 11.2754 6.0805 11.2754 5.42484C11.2754 4.76957 11.8341 4.23828 12.5231 4.23828C13.2125 4.23828 13.7712 4.76958 13.7712 5.42484Z" fill="#1A9FBD"/>
  <path d="M44.6859 26.9105C39.8543 26.9105 35.9238 30.6484 35.9238 35.2434C35.9238 39.8383 39.8543 43.5762 44.6859 43.5762C46.163 43.5762 47.615 43.2429 48.8417 42.6001C48.9399 42.7125 49.0489 42.8161 49.1671 42.9096L51.6706 45.2904C51.9017 45.5377 52.1836 45.7376 52.4989 45.8776C52.8142 46.0176 53.1563 46.0948 53.5041 46.1046C53.852 46.1143 54.1982 46.0563 54.5216 45.9342C54.8451 45.8121 55.1388 45.6284 55.3849 45.3944C55.631 45.1603 55.8241 44.881 55.9525 44.5734C56.081 44.2658 56.1419 43.9365 56.1317 43.6057C56.1215 43.275 56.0402 42.9496 55.893 42.6498C55.7458 42.3499 55.5357 42.0818 55.2756 41.862L52.7721 39.4812C52.6501 39.3652 52.5159 39.2615 52.3715 39.1717C53.0475 38.0051 53.4731 36.648 53.4731 35.2195C53.4731 30.6246 49.5426 26.8867 44.711 26.8867L44.6859 26.9105ZM44.6859 29.2913C48.1657 29.2913 50.9446 31.934 50.9446 35.2434C50.9446 36.8147 50.3437 38.267 49.2923 39.3383C49.2673 39.3622 49.2422 39.386 49.2172 39.4098C49.0989 39.5032 48.99 39.6068 48.8917 39.7193C47.7902 40.6716 46.2881 41.2192 44.6609 41.2192C41.1811 41.2192 38.4023 38.5765 38.4023 35.2672C38.4023 31.9578 41.1811 29.3151 44.6609 29.3151L44.6859 29.2913Z" fill="#1A9FBD"/>
  <path d="M23.7959 12.6875C20.1974 12.6875 14.1094 13.3871 14.1094 16.007V28.6008C14.1092 28.6988 14.1258 28.7963 14.1587 28.8892C14.7534 31.1782 20.385 31.7952 23.7958 31.7952C27.3497 31.7952 33.3316 31.1112 33.4752 28.5674V28.5025V16.007C33.4822 13.3871 27.3941 12.6875 23.7958 12.6875L23.7959 12.6875ZM31.6021 24.2933C31.3035 24.8477 28.4102 25.858 23.7959 25.858C19.1817 25.858 16.2886 24.8498 15.9898 24.2933V22.268C18.077 23.1913 21.4618 23.4863 23.7959 23.4863C26.1301 23.4863 29.5148 23.1913 31.6021 22.268V24.2933ZM31.6021 20.1336C31.3035 20.6879 28.4102 21.6983 23.7959 21.6983C19.1817 21.6983 16.2886 20.6901 15.9898 20.1336V18.1083C18.077 19.0315 21.4618 19.3266 23.7959 19.3266C26.1301 19.3266 29.5148 19.0316 31.6021 18.1083V20.1336ZM23.7959 14.4758C28.3232 14.4758 31.1929 15.446 31.5832 16.007C31.193 16.5682 28.3231 17.5381 23.7959 17.5381C19.2688 17.5381 16.399 16.5681 16.0087 16.007C16.3989 15.4459 19.2688 14.4758 23.7959 14.4758ZM23.7959 30.0158C19.1818 30.0158 16.2886 29.0076 15.9898 28.4511V26.4258C18.077 27.349 21.4618 27.6441 23.7959 27.6441C26.1301 27.6441 29.5148 27.3491 31.6021 26.4258V28.4509C31.3035 29.0076 28.4102 30.0158 23.7959 30.0158Z" fill="#1A9FBD"/>
</svg>