<svg xmlns="http://www.w3.org/2000/svg" width="57" height="50" viewBox="0 0 57 50" fill="none">
  <rect x="2.45117" y="2.58594" width="50.8294" height="42.0657" rx="3.50548" fill="#6E71CC" fill-opacity="0.3"/>
  <path d="M32.4005 37.4116H4.35672C3.68474 37.4116 3.13727 36.8641 3.13727 36.1921V10.5863H44.5941V23.9985C44.5941 24.6717 45.1404 25.218 45.8136 25.218C46.4868 25.218 47.033 24.6717 47.033 23.9985L47.0326 4.49001C47.0326 2.47321 45.3915 0.832031 43.3747 0.832031H4.35715C2.34037 0.832031 0.699219 2.47321 0.699219 4.49001V36.1921C0.699219 38.2089 2.34037 39.8501 4.35715 39.8501H32.4009C33.0741 39.8501 33.6204 39.3039 33.6204 38.6306C33.6204 37.9574 33.0741 37.4112 32.4009 37.4112L32.4005 37.4116ZM4.35672 3.27013H43.3743C44.0462 3.27013 44.5937 3.8176 44.5937 4.48959V8.14757H3.13685V4.48959C3.13685 3.8176 3.68432 3.27013 4.3563 3.27013H4.35672Z" fill="#6E71CC"/>
  <path d="M6.7959 5.70733C6.7959 6.38095 6.25006 6.92679 5.57645 6.92679C4.90325 6.92679 4.35742 6.38095 4.35742 5.70733C4.35742 5.03411 4.90326 4.48828 5.57645 4.48828C6.25006 4.48828 6.7959 5.03412 6.7959 5.70733Z" fill="#6E71CC"/>
  <path d="M10.4541 5.70733C10.4541 6.38095 9.90827 6.92679 9.23466 6.92679C8.56145 6.92679 8.01562 6.38095 8.01562 5.70733C8.01562 5.03411 8.56146 4.48828 9.23466 4.48828C9.90827 4.48828 10.4541 5.03412 10.4541 5.70733Z" fill="#6E71CC"/>
  <path d="M14.1104 5.70733C14.1104 6.38095 13.5645 6.92679 12.8909 6.92679C12.2177 6.92679 11.6719 6.38095 11.6719 5.70733C11.6719 5.03411 12.2177 4.48828 12.8909 4.48828C13.5645 4.48828 14.1104 5.03412 14.1104 5.70733Z" fill="#6E71CC"/>
  <path d="M45.7243 34.9727C43.7076 34.9727 42.0664 36.6138 42.0664 38.6306C42.0664 40.6474 43.7076 42.2886 45.7243 42.2886C47.7411 42.2886 49.3823 40.6474 49.3823 38.6306C49.3823 36.6138 47.7411 34.9727 45.7243 34.9727ZM45.7243 39.8501C45.0524 39.8501 44.5049 39.3026 44.5049 38.6306C44.5049 37.9586 45.0524 37.4112 45.7243 37.4112C46.3963 37.4112 46.9438 37.9586 46.9438 38.6306C46.9438 39.3026 46.3963 39.8501 45.7243 39.8501Z" fill="#6E71CC"/>
  <path d="M56.1772 40.34L54.4054 39.3169C54.425 39.0854 54.4348 38.856 54.4348 38.6306C54.4348 38.4048 54.425 38.1758 54.4054 37.9443L56.1772 36.9212C56.7614 36.5848 56.9599 35.8386 56.6235 35.2555L54.185 31.0317C53.8474 30.4487 53.1023 30.2466 52.5193 30.5855L50.745 31.6098C50.3694 31.3501 49.973 31.1219 49.5585 30.9255V28.8757C49.5585 28.2025 49.0123 27.6562 48.3391 27.6562H43.4617C42.7885 27.6562 42.2423 28.2025 42.2423 28.8757V30.9255C41.8279 31.1219 41.4315 31.3497 41.0558 31.6098L39.2815 30.5855C38.6949 30.2478 37.9527 30.4487 37.6158 31.0317L35.1773 35.2555C34.8409 35.8385 35.0406 36.5844 35.6236 36.9212L37.3954 37.9443C37.3758 38.1758 37.366 38.4053 37.366 38.6306C37.366 38.8564 37.3758 39.0854 37.3954 39.3169L35.6236 40.34C35.0394 40.6764 34.8409 41.4226 35.1773 42.0057L37.6158 46.2295C37.9522 46.8125 38.6948 47.0109 39.2815 46.6758L41.0558 45.6514C41.4314 45.9111 41.8278 46.1393 42.2423 46.3357V48.3855C42.2423 49.0587 42.7885 49.605 43.4617 49.605H48.3391C49.0123 49.605 49.5585 49.0587 49.5585 48.3855V46.3357C49.9729 46.1393 50.3693 45.9115 50.745 45.6514L52.5193 46.6758C53.1022 47.0109 53.8469 46.8113 54.185 46.2295L56.6235 42.0057C56.9599 41.4227 56.7602 40.6768 56.1772 40.34ZM51.8901 37.5198C51.962 37.9015 51.9975 38.2759 51.9975 38.6319C51.9975 38.988 51.962 39.3611 51.8901 39.744C51.7963 40.2523 52.0314 40.7647 52.4793 41.0231L53.902 41.8437L52.6825 43.9556L51.2598 43.1338C50.8124 42.8766 50.2514 42.9276 49.8575 43.2632C49.2904 43.7474 48.6429 44.1217 47.9321 44.3728C47.4455 44.5459 47.1189 45.0056 47.1189 45.5225V47.1673H44.6804V45.5225C44.6804 45.0056 44.355 44.5459 43.8672 44.3728C43.1564 44.1217 42.509 43.7486 41.9419 43.2632C41.5479 42.9256 40.987 42.8741 40.5395 43.1338L39.1168 43.9556L37.8974 41.8437L39.3201 41.0231C39.7675 40.7647 40.0043 40.2523 39.9092 39.744C39.8373 39.3623 39.8018 38.988 39.8018 38.6319C39.8018 38.271 39.8373 37.9077 39.9092 37.5198C40.0031 37.0115 39.7679 36.4991 39.3201 36.2407L37.8974 35.4201L39.1168 33.3082L40.5395 34.1301C40.9882 34.3873 41.5491 34.3375 41.9419 34.0006C42.5089 33.5165 43.1564 33.1421 43.8672 32.891C44.3538 32.7179 44.6804 32.2582 44.6804 31.7414V30.0965H47.1189V31.7414C47.1189 32.2582 47.4443 32.7179 47.9321 32.891C48.6429 33.1421 49.2904 33.5153 49.8575 34.0006C50.2502 34.3371 50.8111 34.3873 51.2598 34.1301L52.6825 33.3082L53.902 35.4201L52.4793 36.2407C52.0318 36.4992 51.795 37.0115 51.8901 37.5198Z" fill="#6E71CC"/>
  <path d="M17.4112 15.8225C16.9344 15.3456 16.1639 15.3456 15.6872 15.8225L8.3713 23.1384C7.89446 23.6153 7.89446 24.3857 8.3713 24.8625L15.6872 32.1784C15.9248 32.416 16.2371 32.5357 16.5494 32.5357C16.8617 32.5357 17.1736 32.4161 17.4116 32.1784C17.8884 31.7016 17.8884 30.9312 17.4116 30.4544L10.958 24.0007L17.4116 17.547C17.8884 17.0701 17.8884 16.2997 17.4116 15.8229L17.4112 15.8225Z" fill="#6E71CC"/>
  <path d="M30.3181 32.1784C30.5557 32.416 30.8681 32.5357 31.1804 32.5357C31.4927 32.5357 31.8046 32.4161 32.0426 32.1784L39.3585 24.8625C39.8353 24.3856 39.8353 23.6152 39.3585 23.1384L32.0426 15.8225C31.5658 15.3456 30.7953 15.3456 30.3186 15.8225C29.8418 16.2993 29.8417 17.0697 30.3186 17.5465L36.7722 24.0002L30.3186 30.454C29.8417 30.9308 29.8417 31.7012 30.3186 32.178L30.3181 32.1784Z" fill="#6E71CC"/>
  <path d="M26.3801 13.817L19.0643 33.3266C18.8279 33.9569 19.1472 34.6592 19.7775 34.8971C19.9188 34.9494 20.0629 34.9751 20.2053 34.9751C20.6993 34.9751 21.1639 34.6726 21.3481 34.1839L28.6639 14.6743C28.9003 14.044 28.5811 13.3418 27.9507 13.1038C27.3192 12.8711 26.6181 13.1867 26.3801 13.817Z" fill="#6E71CC"/>
</svg>